# xmcd CD database file
#
# Track frame offsets:
#	150
#	18971
#	37760
#	57069
#	77466
#	96138
#	113532
#	135330
#	152342
#	173794
#	190075
#	204399
#
# Disc length: 2875 seconds
#
# Revision: 0
# Processed by: cddbd v1.5.2PL0 Copyright (c) Steve Scherf et al.
# Submitted via: CDex 1.51
#
DISCID=7a0b390c
DTITLE=Eden Brent - Jigsaw Heart
DYEAR=2014
DGENRE=Blues
TTITLE0=Better This Way
TTITLE1=Everybody Already Knows
TTITLE2=Jigsaw Heart
TTITLE3=Opportunity
TTITLE4=I Wish I Knew How it Would Feel to Be Free
TTITLE5=The Last Time
TTITLE6=Panther Burn
TTITLE7=Let's Go Ahead and Fall in Love
TTITLE8=Tendin' to a Broken Heart
TTITLE9=Locomotive
TTITLE10=Get the Hell Out of Dodge
TTITLE11=Eden Brent - Valentine
EXTD=YEAR: 2014
EXTT0=
EXTT1=
EXTT2=
EXTT3=
EXTT4=
EXTT5=
EXTT6=
EXTT7=
EXTT8=
EXTT9=
EXTT10=
EXTT11=
PLAYORDER=
